<svg width="1080" height="1080" viewBox="0 0 1080 1080" fill="none" xmlns="http://www.w3.org/2000/svg">
<rect width="1080" height="1080" fill="#0D0D0D"/>
<g clip-path="url(#clip0_91_2)">
<path d="M796.999 433H678.561C666.173 433 656.13 443.043 656.13 455.431V478.281C656.13 490.67 666.173 500.712 678.561 500.712H796.999C809.387 500.712 819.43 490.67 819.43 478.281V455.431C819.43 443.043 809.387 433 796.999 433Z" fill="#7A3BF1"/>
<path d="M870.261 433.212H847.836C835.448 433.212 825.405 443.255 825.405 455.644V478.069C825.405 490.457 835.448 500.5 847.836 500.5H870.261C882.649 500.5 892.692 490.457 892.692 478.069V455.644C892.692 443.255 882.649 433.212 870.261 433.212Z" fill="#03BFD3"/>
<path d="M723.417 506.681H678.561C666.173 506.681 656.13 516.723 656.13 529.112V551.537C656.13 563.925 666.173 573.968 678.561 573.968H723.417C735.806 573.968 745.849 563.925 745.849 551.537V529.112C745.849 516.723 735.806 506.681 723.417 506.681Z" fill="#FF4500"/>
<path d="M796.68 506.681H774.255C761.867 506.681 751.824 516.723 751.824 529.112V551.537C751.824 563.925 761.867 573.968 774.255 573.968H796.68C809.068 573.968 819.111 563.925 819.111 551.537V529.112C819.111 516.723 809.068 506.681 796.68 506.681Z" fill="#F2C200"/>
<path d="M858.736 506.681C877.317 506.681 892.38 521.743 892.38 540.324C892.38 558.906 877.317 573.968 858.736 573.968C840.155 573.968 825.092 558.906 825.092 540.324C825.092 521.743 840.155 506.681 858.736 506.681Z" fill="#F2C200"/>
<path d="M869.211 579.95H678.561C666.173 579.95 656.13 589.993 656.13 602.381V624.806C656.13 637.195 666.173 647.238 678.561 647.238H869.211C881.6 647.238 891.642 637.195 891.642 624.806V602.381C891.642 589.993 881.6 579.95 869.211 579.95Z" fill="#FF4500"/>
<path d="M220.242 462.231C224.336 462.231 226.386 460.1 226.386 455.831C226.386 451.562 224.336 449.562 220.242 449.562C216.148 449.562 213.973 451.656 213.973 455.831C213.973 460.006 216.061 462.231 220.242 462.231Z" fill="white"/>
<path d="M290.736 532.73C286.555 532.73 284.467 534.818 284.467 538.999C284.467 543.18 286.555 545.399 290.736 545.399C294.917 545.399 296.88 543.268 296.88 538.999C296.88 534.73 294.83 532.73 290.736 532.73Z" fill="white"/>
<path d="M288.692 496.781C288.692 505.312 284.511 509.575 276.155 509.575H266.942C258.58 509.575 254.405 505.312 254.405 496.781V464.412L243.399 470.3V513.031C243.399 518.919 241.692 523.694 238.28 527.362C234.186 531.712 228.386 533.887 220.88 533.887C214.399 533.887 209.067 531.756 204.886 527.487C200.449 522.881 198.23 516.994 198.23 509.831C198.23 502.669 200.149 496.312 203.986 490.256L193.367 492.556C189.792 497.675 187.999 503.819 187.999 510.981C187.999 519.256 190.342 526.419 195.036 532.475C201.18 540.319 209.792 544.244 220.88 544.244C229.58 544.244 236.874 542.025 242.761 537.587C249.33 532.725 253.124 525.944 254.149 517.244C257.386 519.037 261.23 519.931 265.661 519.931H277.43C283.911 519.931 289.155 518.056 293.167 514.3C297.517 510.125 299.692 504.406 299.692 497.156V464.4L288.686 470.287V496.775L288.692 496.781Z" fill="white"/>
<path d="M280.63 538.999C280.63 534.818 278.58 532.73 274.486 532.73C270.392 532.73 268.217 534.818 268.217 538.999C268.217 543.18 270.311 545.399 274.486 545.399C278.661 545.399 280.63 543.268 280.63 538.999Z" fill="white"/>
<path d="M598.961 496.78C598.961 505.312 594.78 509.574 586.424 509.574H578.361C570.086 509.574 565.949 505.312 565.949 496.78V495.374C565.949 487.018 563.261 480.105 557.886 474.649C551.917 468.762 544.067 465.824 534.342 465.824H533.574L558.78 437.418H547.524L519.505 468.512V479.387C524.024 477.68 528.542 476.83 533.067 476.83C538.78 476.83 543.599 478.193 547.524 480.924C552.467 484.249 554.942 489.112 554.942 495.512V496.662C554.942 505.28 550.849 509.587 542.661 509.587H366.605V485.274C366.605 478.793 364.855 473.549 361.361 469.537C357.267 465.018 351.424 462.755 343.83 462.755C336.236 462.755 330.736 465.055 326.299 469.662C321.349 474.868 318.88 482.118 318.88 491.412C318.88 499.005 320.842 505.187 324.767 509.962C329.455 515.68 336.411 518.787 345.624 519.299C347.755 519.474 351.042 519.643 355.474 519.812C355.386 523.737 353.661 527.105 350.292 529.918C346.924 532.73 342.98 534.143 338.455 534.143C333.93 534.143 329.542 532.949 325.024 530.562V540.287C329.711 542.762 334.705 543.999 339.992 543.999C346.392 543.999 352.105 542.037 357.136 538.112C363.105 533.337 366.261 527.28 366.605 519.943H543.68C550.842 519.943 556.43 517.724 560.442 513.287C564.449 517.724 570.036 519.943 577.205 519.943H587.699C594.18 519.943 599.424 518.068 603.436 514.312C607.786 510.137 609.961 504.418 609.961 497.168V464.412L598.955 470.299V496.787L598.961 496.78ZM355.48 509.574C351.299 509.405 348.186 509.193 346.142 508.937C335.224 508.255 329.767 502.33 329.767 491.149C329.767 485.437 331.005 480.98 333.48 477.78C335.955 474.58 339.405 472.98 343.842 472.98C351.605 472.98 355.486 477.33 355.486 486.03V509.574H355.48Z" fill="white"/>
<path d="M604.08 436.262C599.899 436.262 597.811 438.356 597.811 442.531C597.811 446.706 599.899 448.931 604.08 448.931C608.261 448.931 610.224 446.8 610.224 442.531C610.224 438.262 608.174 436.262 604.08 436.262Z" fill="white"/>
<path d="M587.83 448.925C591.924 448.925 593.974 446.793 593.974 442.525C593.974 438.256 591.924 436.256 587.83 436.256C583.736 436.256 581.561 438.35 581.561 442.525C581.561 446.7 583.649 448.925 587.83 448.925Z" fill="white"/>
<path d="M188.23 580.562H210.686V646.099H221.68V580.562H245.917V571.48H188.23V580.562Z" fill="white"/>
<path d="M271.68 591.168C264.898 591.168 259.186 593.687 254.542 598.712C249.417 604.293 246.861 611.249 246.861 619.574C246.861 627.899 249.223 634.349 253.955 639.38C259.073 644.805 265.973 647.512 274.642 647.512C282.205 647.512 288.748 645.312 294.261 640.912L291.186 635.137C286.142 638.124 281.18 639.618 276.292 639.618C271.405 639.618 267.111 638.105 263.88 635.08C260.648 632.055 258.755 627.949 258.205 622.762H296.03V619.224C296.03 611.68 294.255 605.43 290.711 600.48C286.298 594.274 279.955 591.168 271.68 591.168ZM257.855 614.862C258.248 609.993 259.723 606.099 262.286 603.193C264.848 600.287 268.098 598.83 272.036 598.83C275.973 598.83 279.386 600.224 281.786 603.018C284.186 605.805 285.467 609.755 285.63 614.868H257.855V614.862Z" fill="white"/>
<path d="M336.811 639.618C331.611 639.618 327.274 637.93 323.811 634.549C320.03 630.774 318.136 625.905 318.136 619.93C318.136 613.955 319.83 608.774 323.217 604.843C326.605 600.912 330.942 598.949 336.217 598.949C341.18 598.949 345.749 600.362 349.93 603.193L352.767 597.537C347.486 593.293 341.38 591.168 334.449 591.168C327.517 591.168 321.167 593.568 316.13 598.362C310.299 603.862 307.38 610.937 307.38 619.58C307.38 627.28 309.624 633.687 314.117 638.793C319.317 644.612 326.33 647.518 335.155 647.518C342.88 647.518 349.024 645.243 353.592 640.68L350.399 634.787C346.692 638.012 342.161 639.618 336.805 639.618H336.811Z" fill="white"/>
<path d="M394.617 591.168C387.917 591.168 382.361 593.606 377.949 598.481V570.068L367.786 575.493V646.106H377.949V605.906C379.13 604.256 380.98 602.843 383.505 601.662C386.024 600.481 388.505 599.893 390.955 599.893C399.78 599.893 404.192 604.887 404.192 614.868V646.106H414.361V614.281C414.361 598.881 407.78 591.175 394.624 591.175L394.617 591.168Z" fill="white"/>
<path d="M495.205 629.362L479.367 571.48H467.549L451.711 629.362L436.342 571.48H424.761L446.63 646.099H456.205C461.799 629.124 467.555 609.518 473.461 587.274C479.374 609.512 485.124 629.124 490.717 646.099H500.292L522.161 571.48H510.58L495.211 629.362H495.205Z" fill="white"/>
<path d="M538.586 570.068C536.93 570.068 535.511 570.656 534.33 571.837C533.148 573.018 532.555 574.431 532.555 576.081C532.555 577.731 533.123 579.262 534.267 580.443C535.411 581.618 536.848 582.212 538.58 582.212C540.311 582.212 541.773 581.625 542.955 580.443C544.136 579.262 544.73 577.812 544.73 576.081C544.73 574.35 544.117 573.018 542.898 571.837C541.673 570.656 540.242 570.068 538.586 570.068Z" fill="white"/>
<path d="M543.555 592.581H533.386V646.1H543.555V592.581Z" fill="white"/>
<path d="M589.061 591.168C581.892 591.168 576.292 593.405 572.274 597.887H571.68L570.736 592.58H562.224V646.099H572.386V605.899C573.567 604.249 575.417 602.837 577.942 601.655C580.461 600.474 582.949 599.887 585.392 599.887C594.217 599.887 598.63 604.88 598.63 614.862V646.099H608.792V614.274C608.792 598.874 602.211 591.168 589.055 591.168H589.061Z" fill="white"/>
</g>
<defs>
<clipPath id="clip0_91_2">
<rect width="704.694" height="214.519" fill="white" transform="translate(188 433)"/>
</clipPath>
</defs>
</svg>
